<?xml version="1.0" standalone="no"?><!DOCTYPE svg PUBLIC "-//W3C//DTD SVG 1.1//EN" "http://www.w3.org/Graphics/SVG/1.1/DTD/svg11.dtd"><svg t="1578882893776" class="icon" viewBox="0 0 1024 1024" version="1.1" xmlns="http://www.w3.org/2000/svg" p-id="2773" xmlns:xlink="http://www.w3.org/1999/xlink" width="200" height="200"><defs><style type="text/css"></style></defs><path d="M920 152v720H104V152h816m40-40H64v800h896V112zM424.9 291c57.9 0 105 47.1 105 105s-47.1 105-105 105-105-47.1-105-105 47.1-105 105-105m0-40c-80.1 0-145 64.9-145 145s64.9 145 145 145 145-64.9 145-145-64.9-145-145-145zM185.8 767.8c3.2-14.3 7.6-28.3 13.4-41.9 12.3-29.2 30-55.4 52.5-77.9 22.5-22.5 48.7-40.2 77.9-52.5 30.2-12.8 62.3-19.2 95.4-19.2s65.2 6.5 95.4 19.2c29.2 12.3 55.4 30 77.9 52.5 22.5 22.5 40.2 48.7 52.5 77.9 5.8 13.6 10.2 27.6 13.4 41.9H705C680 636 564.2 536.3 425 536.3S170 636 145 767.8h40.8zM739.3 300v40h120v-40h-120z m-51.8 135.8h171.8v-40H687.5v40z m0 95.8h171.8v-40H687.5v40z" fill="" p-id="2774"></path></svg>