<?xml version="1.0" standalone="no"?><!DOCTYPE svg PUBLIC "-//W3C//DTD SVG 1.1//EN" "http://www.w3.org/Graphics/SVG/1.1/DTD/svg11.dtd"><svg t="1578882900559" class="icon" viewBox="0 0 1024 1024" version="1.1" xmlns="http://www.w3.org/2000/svg" p-id="3018" xmlns:xlink="http://www.w3.org/1999/xlink" width="200" height="200"><defs><style type="text/css"></style></defs><path d="M250.955679 740.930392c-11.464947 0-20.757562 1.995966-20.757562 13.458481 0 11.464947 9.293832 13.460913 20.757562 13.460913h103.790243c11.464947 0 20.757562-1.997183 20.757562-13.460913s-9.293832-13.45848-20.757562-13.458481H250.955679z m166.064146-131.846887c0-5.507456-2.185711-4.704691-6.076689-8.600535a20.777023 20.777023 0 0 0-14.680873-6.075473H250.955679c-11.464947 0-20.757562 3.212277-20.757562 14.676008s9.293832 15.892318 20.757562 15.892318h145.306584c5.50624 0 10.785029-2.185711 14.680873-6.081554 3.890979-3.890979 6.076689-4.303308 6.076689-9.810764z m207.585352-150.176693c0-5.502591-2.185711-3.487163-6.081555-7.379358a20.757562 20.757562 0 0 0-14.676007-6.081555H250.955679c-11.464947 0-20.757562 4.428588-20.757562 15.893535s9.293832 14.676008 20.757562 14.676007h352.891936c5.50624 0 10.785029-2.185711 14.676007-6.076689m6.081555-6.166696" fill="" p-id="3019"></path><path d="M458.541031 928.973277H209.439338c-22.026174-0.704244-51.384271-18.648479-66.450714-34.731759-15.071309-16.078414-21.913058-37.491568-21.185704-59.515309V330.710074h754.601727v211.737837c0 7.41828 3.957876 11.835922 10.376349 15.546886 6.423338 3.706099 4.608602 3.706099 11.027075 0 6.423338-3.710965 10.381214-8.129822 10.381213-15.546886v-330.471677c-0.707893-33.035005-14.515455-64.435287-38.380691-87.288553s-46.100616-35.287612-79.136837-34.565123h-83.987486V45.907223c0-11.464947-5.644899-20.757562-17.108629-20.757562s-14.676008 9.292615-14.676007 20.757562v44.215335H331.820894V45.907223c0-11.464947-4.428588-20.757562-15.892318-20.757562s-15.892318 9.292615-15.892319 20.757562v44.215335H209.439338A120.397753 120.397753 0 0 0 87.585661 211.976234v622.751191A124.551454 124.551454 0 0 0 209.440555 961.974225h249.101692c11.460081 0 20.757562-0.778439 20.757562-12.24217 0-11.466163-9.298697-21.973873-20.757562-21.973873v1.215095zM209.439338 118.258262h89.379392v31.439204c0 11.464947 5.644899 20.757562 17.108629 20.757563s15.892318-9.292615 15.892319-20.757563V118.258262h344.296266v31.439204c0 11.464947 1.995966 20.757562 13.459697 20.757563s15.892318-9.292615 15.892319-20.757563V118.258262h85.203796c22.021309-0.726138 47.084612 20.711342 63.163026 35.781434 16.083279 15.066443 21.865621 35.910364 22.568649 57.936538v89.380608H120.586609v-89.380608c-0.456117-21.44721 12.728694-53.089539 27.894875-68.260585 15.166181-15.166181 39.515509-25.913504 60.957854-25.457387z m0 13.37942" fill="" p-id="3020"></path><path d="M868.912172 960.751832c-12.647201 0-25.395356-4.865244-35.026106-14.500859l-60.135628-60.130763a14.043526 14.043526 0 0 1 0-19.951148 14.038661 14.038661 0 0 1 19.945067 0L853.832349 926.307123c8.272131 8.270914 21.798724 8.270914 30.165727 0 8.272131-8.273347 8.272131-21.793859 0-30.166943l-58.871881-58.867016a14.04231 14.04231 0 0 1 0-19.949932 14.043526 14.043526 0 0 1 19.949932 0l58.867016 58.871881c19.266365 19.266365 19.266365 50.695839 0 70.057077-9.730487 9.634399-22.377688 14.499642-35.030971 14.499642z" fill="" p-id="3021"></path><path d="M691.330778 909.27877c-102.459599 0-185.948397-83.390277-185.948397-185.949613S588.771441 537.475632 691.330778 537.475632s185.953262 83.390277 185.953262 185.853525c0 102.459599-83.487582 185.949613-185.953262 185.949613z m0-343.585941c-86.990557 0-157.7312 70.740643-157.7312 157.636328 0 86.890819 70.740643 157.7312 157.7312 157.7312 86.994206 0 157.7312-70.740643 157.7312-157.7312s-70.835515-157.636328-157.7312-157.636328z m0 0" fill="" p-id="3022"></path></svg>