<?xml version="1.0" standalone="no"?><!DOCTYPE svg PUBLIC "-//W3C//DTD SVG 1.1//EN" "http://www.w3.org/Graphics/SVG/1.1/DTD/svg11.dtd"><svg t="1582945541560" class="icon" viewBox="0 0 1024 1024" version="1.1" xmlns="http://www.w3.org/2000/svg" p-id="4468" xmlns:xlink="http://www.w3.org/1999/xlink" width="200" height="200"><defs><style type="text/css"></style></defs><path d="M179.2 0C125.155556 0 82.488889 42.666667 82.488889 93.866667v833.422222c0 51.2 42.666667 93.866667 96.711111 93.866667h665.6c54.044444 0 96.711111-42.666667 96.711111-93.866667V91.022222C938.666667 36.977778 893.155556 0 839.111111 0H179.2z m91.022222 952.888889H173.511111c-25.6 0-48.355556-19.911111-48.355555-48.355556V122.311111c0-22.755556 19.911111-48.355556 48.355555-48.355555h96.711111v896-17.066667z m580.266667 0H321.422222V76.8h287.288889v247.466667L702.577778 227.555556l96.711111 93.866666V73.955556h48.355555c25.6 0 48.355556 19.911111 48.355556 48.355555v782.222222c2.844444 25.6-17.066667 48.355556-45.511111 48.355556z" fill="#666666" p-id="4469"></path></svg>