<?xml version="1.0" standalone="no"?><!DOCTYPE svg PUBLIC "-//W3C//DTD SVG 1.1//EN" "http://www.w3.org/Graphics/SVG/1.1/DTD/svg11.dtd"><svg t="1578882855593" class="icon" viewBox="0 0 1024 1024" version="1.1" xmlns="http://www.w3.org/2000/svg" p-id="1792" xmlns:xlink="http://www.w3.org/1999/xlink" width="200" height="200"><defs><style type="text/css"></style></defs><path d="M950.5 73.5H73.9c-40.1 0-73 32.9-73 73V877c0 40.1 32.9 73 73 73h876.7c40.1 0 73-32.9 73-73V146.5c-0.1-40.3-32.8-73-73.1-73zM694.9 183h255.6v182.6H694.9V183z m0 255.8h255.6v182.6H694.9V438.8zM402.6 183h219.1v182.6H402.6V183z m0 255.8h219.1v182.6H402.6V438.8z m-73 438.2H73.9V694.4h255.6c0.1 0 0.1 182.6 0.1 182.6z m0-255.6H73.9V438.8h255.6c0.1 0 0.1 182.6 0.1 182.6z m0-255.8H73.9V183h255.6c0.1 0 0.1 182.6 0.1 182.6z m73 511.4V694.4h219.1V877H402.6z m292.3 0V694.4h255.6V877H694.9z" p-id="1793"></path></svg>