<?xml version="1.0" standalone="no"?><!DOCTYPE svg PUBLIC "-//W3C//DTD SVG 1.1//EN" "http://www.w3.org/Graphics/SVG/1.1/DTD/svg11.dtd"><svg t="1582945517704" class="icon" viewBox="0 0 1024 1024" version="1.1" xmlns="http://www.w3.org/2000/svg" p-id="3619" xmlns:xlink="http://www.w3.org/1999/xlink" width="200" height="200"><defs><style type="text/css"></style></defs><path d="M202.15625 929.09375c-17.0625 0-33.09375-6.65625-45.1875-18.65625-12.09375-12.09375-18.75-28.125-18.75-45.28125V158.65625c0-35.25 28.6875-63.9375 63.9375-63.9375h663.1875c10.125 0 18.375 8.25 18.375 18.375s-8.25 18.375-18.375 18.375H202.0625c-15 0-27.1875 12.1875-27.1875 27.1875v706.5c0 7.3125 2.8125 14.0625 7.96875 19.21875s12 7.96875 19.21875 7.96875h0.09375l609.09375-2.0625c15-0.09375 27.1875-12.28125 27.1875-27.1875V334.25c0-15-12.1875-27.1875-27.1875-27.1875h-556.875c-10.125 0-18.375-8.25-18.375-18.375s8.25-18.375 18.375-18.375h556.875c35.25 0 63.9375 28.6875 63.9375 63.9375v528.84375c0 35.15625-28.59375 63.84374999999999-63.75 63.9375l-609.09375 2.0625h-0.1875z" p-id="3620"></path><path d="M636.875 462.875H252.03125c-10.125 0-18.375-8.25-18.375-18.375s8.25-18.375 18.375-18.375h384.84375c10.125 0 18.375 8.25 18.375 18.375s-8.15625 18.375-18.375 18.375c0.09375 0 0.09375 0 0 0z" p-id="3621"></path></svg>