<?xml version="1.0" standalone="no"?><!DOCTYPE svg PUBLIC "-//W3C//DTD SVG 1.1//EN" "http://www.w3.org/Graphics/SVG/1.1/DTD/svg11.dtd"><svg t="1578882890826" class="icon" viewBox="0 0 1024 1024" version="1.1" xmlns="http://www.w3.org/2000/svg" p-id="2652" xmlns:xlink="http://www.w3.org/1999/xlink" width="200" height="200"><defs><style type="text/css"></style></defs><path d="M512 27.2C244.672 27.2 27.2 244.672 27.2 512S244.672 996.8 512 996.8 996.8 779.328 996.8 512 779.328 27.2 512 27.2z m0 928c-244.352 0-443.2-198.784-443.2-443.2S267.648 68.8 512 68.8 955.2 267.648 955.2 512 756.352 955.2 512 955.2z" fill="" p-id="2653"></path><path d="M512 317.44m-25.6 0a25.6 25.6 0 1 0 51.2 0 25.6 25.6 0 1 0-51.2 0Z" fill="" p-id="2654"></path><path d="M512 382.08a22.4 22.4 0 0 0-22.4 22.4v343.936a22.4 22.4 0 0 0 44.8 0V404.48A22.464 22.464 0 0 0 512 382.08z" fill="" p-id="2655"></path></svg>