<?xml version="1.0" standalone="no"?><!DOCTYPE svg PUBLIC "-//W3C//DTD SVG 1.1//EN" "http://www.w3.org/Graphics/SVG/1.1/DTD/svg11.dtd"><svg t="1578882881884" class="icon" viewBox="0 0 1024 1024" version="1.1" xmlns="http://www.w3.org/2000/svg" p-id="2283" xmlns:xlink="http://www.w3.org/1999/xlink" width="200" height="200"><defs><style type="text/css"></style></defs><path d="M153.6 409.6c0-197.632 160.768-358.4 358.4-358.4s358.4 160.768 358.4 358.4c0 82.944-28.16 159.232-75.776 219.648h62.464c40.96-63.488 64.512-138.752 64.512-219.648 0-225.792-183.808-409.6-409.6-409.6S102.4 183.808 102.4 409.6c0 80.896 23.552 156.16 64 219.648h62.464C181.76 568.832 153.6 492.544 153.6 409.6z" fill="" p-id="2284"></path><path d="M823.296 675.328c-45.056 52.736-102.912 93.696-168.96 118.272l-122.88 142.848c-5.12 5.632-11.776 8.704-19.456 8.704s-14.336-3.072-19.456-8.704l-122.88-142.848c-84.48-31.232-145.92-90.624-193.536-165.376l31.232 55.296 246.272 286.72c14.848 16.896 35.84 26.624 58.368 26.624s43.52-9.728 58.368-26.624l252.928-294.912" fill="" p-id="2285"></path><path d="M751.616 680.448l-97.28 113.152c84.48-31.232 155.136-89.6 203.264-164.352h-62.464M229.376 629.248H166.4c47.616 74.752 118.784 133.12 203.264 164.352l-97.28-113.152M512 614.4c-113.152 0-204.8-91.648-204.8-204.8s91.648-204.8 204.8-204.8 204.8 91.648 204.8 204.8-91.648 204.8-204.8 204.8z m0-358.4c-84.48 0-153.6 69.12-153.6 153.6s69.12 153.6 153.6 153.6 153.6-69.12 153.6-153.6-69.12-153.6-153.6-153.6z" fill="" p-id="2286"></path></svg>