<?xml version="1.0" standalone="no"?><!DOCTYPE svg PUBLIC "-//W3C//DTD SVG 1.1//EN" "http://www.w3.org/Graphics/SVG/1.1/DTD/svg11.dtd"><svg t="1579658497950" class="icon" viewBox="0 0 1024 1024" version="1.1" xmlns="http://www.w3.org/2000/svg" p-id="2171" xmlns:xlink="http://www.w3.org/1999/xlink" width="200" height="200"><defs><style type="text/css"></style></defs><path d="M932.26666667 420.26666667h-90.34666667c-7.46666667-27.09333333-18.24-52.8-31.78666667-76.69333334l63.89333334-63.89333333c16.64-16.64 16.64-43.73333333 0-60.37333333l-69.44-69.44c-16.64-16.64-43.73333333-16.64-60.37333334 0l-63.89333333 63.89333333c-23.89333333-13.54666667-49.6-24.32-76.69333333-31.78666667V91.73333333c0-23.46666667-19.2-42.66666667-42.66666667-42.66666666h-98.13333333c-23.46666667 0-42.66666667 19.2-42.66666667 42.66666666v90.34666667c-27.09333333 7.46666667-52.8 18.24-76.69333333 31.78666667l-63.89333334-63.89333334c-16.64-16.64-43.73333333-16.64-60.37333333 0l-69.44 69.44c-16.64 16.64-16.64 43.73333333 0 60.37333334l63.89333333 63.89333333c-13.54666667 23.89333333-24.32 49.6-31.78666666 76.69333333H91.73333333c-23.46666667 0-42.66666667 19.2-42.66666666 42.66666667v98.13333333c0 23.46666667 19.2 42.66666667 42.66666666 42.66666667h90.34666667c7.46666667 27.09333333 18.24 52.8 31.78666667 76.69333333l-63.89333334 63.89333334c-16.64 16.64-16.64 43.73333333 0 60.37333333l69.44 69.44c16.64 16.64 43.73333333 16.64 60.37333334 0l63.89333333-63.89333333c23.89333333 13.54666667 49.6 24.32 76.69333333 31.78666666V932.26666667c0 23.46666667 19.2 42.66666667 42.66666667 42.66666666h98.13333333c23.46666667 0 42.66666667-19.2 42.66666667-42.66666666v-90.34666667c27.09333333-7.46666667 52.8-18.24 76.69333333-31.78666667l63.89333334 63.89333334c16.64 16.64 43.73333333 16.64 60.37333333 0l69.44-69.44c16.64-16.64 16.64-43.73333333 0-60.37333334l-63.89333333-63.89333333c13.54666667-23.89333333 24.32-49.6 31.78666666-76.69333333H932.26666667c23.46666667 0 42.66666667-19.2 42.66666666-42.66666667v-98.13333333c0-23.36-19.2-42.56-42.66666666-42.56zM512 699.73333333c-103.68 0-187.73333333-84.05333333-187.73333333-187.73333333s84.05333333-187.73333333 187.73333333-187.73333333 187.73333333 84.05333333 187.73333333 187.73333333-84.05333333 187.73333333-187.73333333 187.73333333z" fill="#696969" p-id="2172"></path><path d="M512 512m-93.86666667 0a93.86666667 93.86666667 0 1 0 187.73333334 0 93.86666667 93.86666667 0 1 0-187.73333334 0Z" fill="#696969" p-id="2173"></path></svg>