<?xml version="1.0" standalone="no"?><!DOCTYPE svg PUBLIC "-//W3C//DTD SVG 1.1//EN" "http://www.w3.org/Graphics/SVG/1.1/DTD/svg11.dtd"><svg t="1579658580558" class="icon" viewBox="0 0 1024 1024" version="1.1" xmlns="http://www.w3.org/2000/svg" p-id="5390" xmlns:xlink="http://www.w3.org/1999/xlink" width="200" height="200"><defs><style type="text/css"></style></defs><path d="M512 128c42.7 0 82.9 16.6 113.1 46.9C655.4 205.1 672 245.3 672 288s-16.6 82.9-46.9 113.1C594.9 431.4 554.7 448 512 448s-82.9-16.6-113.1-46.9S352 330.7 352 288s16.6-82.9 46.9-113.1S469.3 128 512 128m0-64c-123.7 0-224 100.3-224 224s100.3 224 224 224 224-100.3 224-224S635.7 64 512 64z" p-id="5391"></path><path d="M256.8 927c-0.6-10.3-0.8-20.6-0.8-31 0-54.2 7.5-106.6 22.4-155.9 14.1-46.6 34.1-88.3 59.4-123.7C385.9 549.1 447.8 512 512 512s126.1 37.1 174.2 104.4c25.3 35.4 45.3 77.1 59.4 123.7C760.5 789.4 768 841.8 768 896c0 10.4-0.3 20.7-0.8 31h64.1c0.5-10.2 0.8-20.6 0.8-31 0-247.4-143.3-448-320-448S192 648.6 192 896c0 10.4 0.3 20.8 0.8 31h64zM362.6 454.9c-10.4-9.3-19.9-19.5-28.4-30.6C319.6 452.6 290 472 256 472c-48.5 0-88-39.5-88-88s39.5-88 88-88c11.5 0 22.4 2.2 32.5 6.2-0.3-4.7-0.5-9.4-0.5-14.2 0-9.3 0.6-18.5 1.7-27.5-10.7-2.9-22-4.5-33.7-4.5-70.7 0-128 57.3-128 128 0 44.4 22.6 83.5 56.9 106.5C114.1 528.9 64 623 64 733h40c0-31.2 4.5-61.4 13.3-89.7 8.3-26.8 20.2-50.8 35.2-71.1C181 533.4 217.8 512 256 512c23.3 0 46 7.9 66.6 22.8 9.6-9.9 19.6-19 30-27.4-8.2-6.5-16.7-12.2-25.6-17 14.1-9.3 26.2-21.4 35.6-35.5z" p-id="5392"></path><path d="M696.9 490.5c-8.9 4.8-17.4 10.5-25.6 17 10.4 8.4 20.4 17.5 30 27.4 20.7-15 43.4-22.9 66.7-22.9 38.2 0 75 21.4 103.5 60.1 15 20.4 26.8 44.3 35.2 71.1 8.8 28.3 13.3 58.5 13.3 89.7h40c0-110-50.1-204.1-120.9-242.5 34.3-23 56.9-62.1 56.9-106.5 0-70.7-57.3-128-128-128-11.7 0-22.9 1.6-33.7 4.5 1.1 9 1.7 18.2 1.7 27.5 0 4.8-0.2 9.5-0.5 14.2 10-4 21-6.2 32.5-6.2 48.5 0 88 39.5 88 88s-39.5 88-88 88c-34 0-63.6-19.4-78.2-47.7-8.5 11.1-18 21.3-28.4 30.6 9.4 14.2 21.5 26.3 35.5 35.7z" p-id="5393"></path></svg>